<?xml version="1.0" encoding="utf-8"?>
<svg viewBox="0 0 341 184" style="enable-background:new 0 0 341 184;" xmlns="http://www.w3.org/2000/svg">
  <defs>
    <style type="text/css">
	.st0{fill:#FFFFFF;}
</style>
  </defs>
  <path d="M 33.869 114.968 Q 33.196 114.743 32.821 114.069 L 32.597 113.246 Q 32.522 112.872 32.522 112.497 Q 32.522 112.123 32.447 111.749 Q 32.372 111.449 32.335 111.187 Q 32.297 110.925 32.148 110.701 Q 31.998 110.401 31.848 110.102 Q 31.698 109.802 31.549 109.503 Q 30.725 107.706 31.025 106.06 L 31.025 105.685 Q 31.1 104.787 31.174 103.926 Q 31.249 103.065 31.324 102.167 Q 31.324 101.867 31.362 101.568 Q 31.399 101.269 31.399 100.969 Q 31.399 100.745 31.436 100.52 Q 31.474 100.295 31.474 100.146 Q 31.474 99.771 31.511 99.322 Q 31.549 98.873 31.549 98.499 L 31.549 98.05 Q 31.474 96.852 31.474 95.692 Q 31.474 94.531 31.474 93.334 Q 31.474 92.959 31.474 92.548 Q 31.474 92.136 31.399 91.762 Q 31.324 91.612 31.324 91.312 Q 31.399 90.788 31.362 90.339 Q 31.324 89.89 31.324 89.441 Q 31.324 89.142 31.324 88.88 Q 31.324 88.618 31.399 88.393 Q 31.474 87.644 31.399 86.971 Q 31.324 86.072 31.249 85.174 Q 31.174 84.276 31.025 83.452 Q 30.875 82.18 30.763 80.907 Q 30.65 79.635 30.725 78.362 L 30.725 76.116 Q 30.725 75.742 30.763 75.368 Q 30.8 74.993 30.8 74.694 L 30.8 74.095 Q 30.725 73.496 30.763 72.86 Q 30.8 72.224 30.875 71.55 L 30.875 70.727 Q 30.875 69.679 30.912 68.631 Q 30.95 67.583 30.95 66.609 Q 30.95 66.01 30.95 65.449 Q 30.95 64.888 30.8 64.364 Q 30.725 63.465 30.95 62.417 Q 31.174 61.818 31.474 61.294 Q 31.773 60.77 32.148 60.321 Q 33.495 58.749 35.666 58.749 Q 36.34 58.824 36.976 59.011 Q 37.612 59.198 38.136 59.648 Q 38.286 59.722 38.585 60.022 Q 38.96 60.321 39.446 60.583 Q 39.933 60.845 40.457 60.995 Q 41.056 61.07 41.692 61.22 Q 42.328 61.369 42.927 61.519 Q 43.152 61.594 43.526 61.594 Q 43.9 61.594 44.125 61.369 Q 44.275 61.22 44.462 61.107 Q 44.649 60.995 44.873 60.92 Q 45.772 60.396 46.52 60.845 Q 46.745 60.92 46.932 61.032 Q 47.119 61.145 47.269 61.22 Q 48.092 61.594 48.542 62.118 Q 48.916 62.567 49.515 62.717 Q 49.889 62.792 50.151 62.941 Q 50.413 63.091 50.712 63.39 Q 51.012 63.615 51.349 63.765 Q 51.686 63.914 51.985 64.064 Q 52.584 64.139 52.958 64.738 Q 53.258 65.337 53.931 65.561 Q 54.306 65.636 54.68 66.01 Q 54.83 66.235 55.428 66.534 Q 55.803 66.609 56.065 66.871 Q 56.327 67.133 56.551 67.508 L 56.701 67.732 Q 57.225 68.855 58.423 69.828 Q 58.872 70.203 59.246 70.689 Q 59.621 71.176 59.77 71.775 Q 59.92 72.074 60.107 72.373 Q 60.294 72.673 60.444 73.047 Q 60.594 73.272 60.669 73.496 Q 60.743 73.721 60.818 74.02 Q 60.893 74.32 60.968 74.544 Q 61.043 74.769 61.118 75.068 Q 61.193 75.218 61.193 75.405 Q 61.193 75.592 61.267 75.742 Q 61.492 76.565 61.604 77.464 Q 61.717 78.362 61.791 79.26 Q 61.866 79.784 61.829 80.308 Q 61.791 80.832 61.791 81.431 Q 61.791 81.806 61.754 82.217 Q 61.717 82.629 61.642 83.003 Q 61.642 83.228 61.492 83.527 Q 60.818 85.548 59.321 87.12 Q 59.022 87.42 58.722 87.757 Q 58.423 88.094 58.123 88.393 Q 57.674 88.842 57.225 89.216 Q 56.776 89.591 56.327 89.965 L 56.102 90.19 Q 55.503 90.489 54.904 90.788 Q 54.306 91.088 53.632 91.238 Q 53.407 91.238 53.332 91.312 Q 52.808 91.612 52.172 91.612 Q 51.536 91.612 50.937 91.537 Q 50.638 91.462 50.376 91.425 Q 50.114 91.387 49.814 91.387 Q 48.841 91.387 47.943 91.462 Q 47.044 91.537 46.071 91.687 L 42.628 92.211 Q 42.403 92.211 42.141 92.248 Q 41.879 92.286 41.58 92.361 Q 41.056 92.435 40.569 92.548 Q 40.083 92.66 39.559 92.585 Q 39.334 92.585 39.334 92.885 L 39.334 94.157 Q 39.184 94.981 39.334 95.804 Q 39.484 96.478 39.184 96.852 Q 38.96 97.376 39.109 97.975 Q 39.259 98.649 39.371 99.36 Q 39.484 100.071 39.633 100.745 Q 39.708 101.119 39.746 101.493 Q 39.783 101.867 39.783 102.242 Q 39.933 103.814 40.232 105.386 Q 40.382 105.835 40.419 106.247 Q 40.457 106.658 40.532 107.108 Q 40.532 107.632 40.457 107.931 Q 40.382 108.156 40.345 108.418 Q 40.307 108.68 40.157 108.904 L 39.933 109.428 Q 39.783 109.578 39.633 109.877 Q 39.334 110.476 38.585 110.85 Q 37.687 111.225 36.939 111.15 Q 36.564 111.15 36.415 111.225 Q 36.04 111.225 35.965 111.524 Q 35.891 111.674 35.816 111.898 Q 35.741 112.123 35.666 112.273 Q 35.666 112.572 35.629 112.909 Q 35.591 113.246 35.516 113.62 Q 35.441 114.219 34.917 114.743 Q 34.468 115.192 33.869 114.968 Z M 40.681 85.698 Q 41.131 85.698 41.542 85.661 Q 41.954 85.623 42.403 85.548 Q 42.927 85.399 43.451 85.324 Q 43.975 85.249 44.499 85.174 Q 45.547 85.024 46.52 84.725 Q 46.82 84.65 47.119 84.613 Q 47.419 84.575 47.718 84.575 Q 48.242 84.575 48.467 84.5 Q 48.991 84.351 49.477 84.351 Q 49.964 84.351 50.563 84.351 L 51.686 84.351 Q 52.584 84.276 53.108 83.602 L 53.707 82.928 Q 54.006 82.554 54.268 82.142 Q 54.53 81.731 54.605 81.207 Q 54.755 80.084 54.53 79.185 Q 54.306 78.287 54.006 77.426 Q 53.707 76.565 53.258 75.817 Q 52.808 74.844 51.91 74.32 Q 51.611 74.245 51.461 73.871 Q 51.311 73.421 50.937 73.197 Q 50.862 73.122 50.787 73.047 Q 50.712 72.972 50.563 72.897 Q 50.263 72.598 49.739 72.598 Q 49.44 72.598 49.103 72.486 Q 48.766 72.373 48.467 72.299 Q 48.167 72.149 47.905 71.999 Q 47.643 71.849 47.419 71.7 Q 46.67 71.251 45.772 71.251 Q 45.098 71.251 44.275 71.026 Q 43.451 70.502 42.553 70.427 Q 42.403 70.427 42.104 70.277 L 41.505 70.053 Q 41.056 69.828 40.756 69.828 Q 39.783 69.529 39.334 70.502 Q 39.259 70.727 39.184 70.989 Q 39.109 71.251 39.035 71.55 Q 38.96 72.149 38.885 72.748 Q 38.81 73.347 38.735 73.945 Q 38.66 74.395 38.585 74.844 Q 38.511 75.293 38.511 75.742 Q 38.436 76.715 38.473 77.688 Q 38.511 78.661 38.66 79.71 L 38.66 80.458 Q 38.66 80.982 38.698 81.506 Q 38.735 82.03 38.81 82.554 Q 38.885 82.779 38.885 83.153 L 39.109 85.174 Q 39.109 85.623 39.559 85.623 Q 39.858 85.698 40.12 85.698 Q 40.382 85.698 40.681 85.698 Z" transform="matrix(0.800726, 0, 0, 1.487096, -21.956646, -40.970413)" style="fill: rgb(255, 255, 255); paint-order: stroke; stroke: rgb(255, 255, 255); stroke-dashoffset: -5px; stroke-miterlimit: 1; stroke-width: 0px; white-space: pre;"/>
  <path d="M 93.829 112.722 Q 92.781 112.946 91.883 112.422 Q 91.359 112.123 90.835 111.936 Q 90.311 111.749 89.712 111.674 Q 88.963 111.524 88.252 111.337 Q 87.541 111.15 86.792 110.85 Q 86.493 110.701 86.231 110.551 Q 85.969 110.401 85.67 110.177 Q 85.445 109.877 85.071 109.802 Q 84.547 109.578 83.948 109.054 Q 83.798 108.904 83.723 108.754 Q 83.424 108.455 83.087 108.23 Q 82.75 108.006 82.376 107.781 Q 81.403 107.182 80.205 106.359 Q 79.98 106.209 79.831 105.985 Q 79.531 105.61 79.119 105.311 Q 78.708 105.012 78.333 104.712 L 76.312 103.365 Q 76.237 103.29 76.088 103.252 Q 75.938 103.215 75.788 103.14 Q 74.815 102.691 74.216 101.867 Q 73.617 101.119 73.093 100.295 Q 72.569 99.472 72.12 98.723 Q 71.971 98.574 71.821 98.274 Q 71.521 97.9 71.297 97.451 Q 71.072 97.002 70.923 96.627 Q 70.773 96.253 70.623 95.804 L 70.399 94.681 Q 70.174 94.082 70.099 93.446 Q 70.024 92.81 69.875 92.211 Q 69.8 91.762 69.65 91.275 Q 69.5 90.788 69.276 90.339 Q 69.126 90.115 69.051 89.853 Q 68.976 89.591 68.827 89.291 Q 68.752 89.142 68.752 88.767 Q 68.677 88.168 68.714 87.57 Q 68.752 86.971 68.976 86.447 L 69.201 85.623 Q 69.351 85.249 69.425 84.875 Q 69.5 84.5 69.575 84.201 Q 69.575 83.677 69.425 83.452 Q 69.351 83.303 69.276 83.116 Q 69.201 82.928 69.126 82.779 Q 68.752 82.03 69.051 81.431 L 69.276 80.832 Q 69.5 80.458 69.5 80.084 Q 69.5 78.886 70.249 77.613 Q 70.773 76.715 71.297 76.191 Q 71.746 75.742 71.971 75.293 Q 72.27 74.694 72.794 74.17 Q 73.468 73.496 73.617 72.972 Q 73.767 72.598 73.992 72.373 L 75.189 71.176 Q 75.713 70.502 75.189 69.903 Q 74.965 69.604 74.853 69.267 Q 74.74 68.93 74.591 68.631 Q 74.366 67.358 75.115 66.385 Q 75.414 66.01 75.751 65.711 Q 76.088 65.412 76.537 65.262 Q 76.761 65.187 76.949 65.112 Q 77.136 65.037 77.36 64.962 Q 77.735 64.888 78.146 64.738 Q 78.558 64.588 78.932 64.438 Q 79.232 64.289 79.456 64.214 Q 79.681 64.139 79.98 64.139 Q 80.28 64.064 80.504 64.027 Q 80.729 63.989 80.953 63.989 Q 81.552 63.914 82.151 63.39 Q 83.199 62.567 84.285 61.706 Q 85.37 60.845 86.343 59.947 Q 86.942 59.423 87.653 58.974 Q 88.364 58.525 89.113 58.15 Q 89.637 57.926 90.236 57.776 Q 90.61 57.626 91.059 57.552 Q 91.508 57.477 91.883 57.402 L 93.455 57.177 Q 94.503 57.102 95.439 56.953 Q 96.374 56.803 97.347 56.653 Q 97.497 56.653 97.647 56.616 Q 97.797 56.578 97.871 56.578 L 98.845 56.578 Q 99.369 56.578 99.818 56.616 Q 100.267 56.653 100.716 56.803 Q 101.315 57.028 101.764 57.364 Q 102.213 57.701 102.513 58.3 Q 103.037 59.049 103.111 59.722 Q 103.186 60.172 103.224 60.621 Q 103.261 61.07 103.261 61.519 L 103.261 62.193 Q 103.261 62.417 103.486 62.567 L 103.935 62.792 Q 104.983 63.166 105.956 63.765 Q 106.929 64.364 107.828 65.037 Q 108.426 65.412 108.726 65.786 Q 109.25 66.31 109.699 66.797 Q 110.148 67.283 110.597 67.807 Q 110.897 68.181 111.196 68.518 Q 111.496 68.855 111.795 69.229 Q 112.02 69.454 112.094 69.604 Q 112.244 70.053 112.618 70.502 Q 113.068 71.251 113.367 71.999 Q 113.592 72.598 113.816 73.234 Q 114.041 73.871 114.19 74.544 Q 114.19 74.769 114.34 75.218 Q 114.415 75.443 114.452 75.63 Q 114.49 75.817 114.49 75.967 Q 114.565 76.416 114.677 76.865 Q 114.789 77.314 114.864 77.763 Q 114.939 78.137 115.014 78.549 Q 115.089 78.961 115.164 79.41 Q 115.238 80.084 115.388 80.795 Q 115.538 81.506 115.613 82.18 L 115.613 82.554 Q 115.613 83.378 115.725 84.238 Q 115.837 85.099 115.837 85.923 Q 115.837 86.222 115.837 86.596 Q 115.837 86.971 115.762 87.345 Q 115.688 87.495 115.688 87.719 Q 115.688 88.618 115.538 89.478 Q 115.388 90.339 115.238 91.163 Q 114.714 94.082 113.666 97.077 Q 113.592 97.376 113.517 97.713 Q 113.442 98.05 113.292 98.424 L 112.169 101.718 Q 112.094 102.017 111.907 102.354 Q 111.72 102.691 111.57 103.065 L 110.223 105.461 Q 109.774 106.284 109.138 106.995 Q 108.501 107.706 107.603 108.23 Q 106.705 108.754 105.956 109.653 Q 105.432 110.401 104.309 110.551 Q 103.785 110.626 103.299 110.663 Q 102.812 110.701 102.363 110.85 L 101.614 111.075 Q 101.539 111.075 101.502 111.112 Q 101.465 111.15 101.315 111.15 Q 100.491 111.3 99.631 111.524 Q 98.77 111.749 97.946 111.898 Q 97.797 111.973 97.497 111.973 Q 97.048 111.973 96.599 112.048 Q 96.15 112.123 95.701 112.273 Z M 91.808 104.937 Q 92.257 105.012 92.631 104.862 Q 92.931 104.712 93.23 104.787 L 93.829 104.787 Q 94.203 104.787 94.503 104.787 Q 94.802 104.787 95.102 104.637 Q 95.326 104.488 95.963 104.375 Q 96.599 104.263 96.599 104.263 Q 97.198 104.113 97.797 103.926 Q 98.395 103.739 98.994 103.439 L 102.138 102.092 Q 102.737 101.867 103.261 101.531 Q 103.785 101.194 104.309 100.894 Q 104.683 100.52 104.983 100.37 Q 105.432 99.996 105.657 99.472 Q 105.806 99.098 105.956 98.723 Q 106.106 98.349 106.181 97.975 Q 106.48 97.151 106.705 96.291 Q 106.929 95.43 107.229 94.606 Q 107.603 93.483 107.94 92.398 Q 108.277 91.312 108.501 90.115 Q 108.576 89.74 108.651 89.291 Q 108.726 88.842 108.801 88.393 Q 108.876 87.869 108.876 87.345 Q 108.876 86.821 108.95 86.297 L 108.95 85.773 Q 108.95 85.249 108.913 84.725 Q 108.876 84.201 108.876 83.677 Q 108.801 82.33 108.576 80.982 Q 108.352 79.635 108.052 78.287 Q 107.902 77.688 107.79 77.127 Q 107.678 76.565 107.528 76.041 Q 107.304 74.993 106.854 74.058 Q 106.405 73.122 105.806 72.224 Q 105.731 71.999 105.582 71.999 Q 105.058 71.4 104.459 70.801 Q 103.86 70.203 103.037 69.903 Q 102.737 69.828 102.438 69.604 Q 102.138 69.454 101.839 69.304 Q 101.539 69.155 101.165 69.08 Q 99.893 68.78 98.395 68.631 Q 98.321 68.556 98.171 68.631 Q 98.021 68.705 98.021 68.855 Q 98.021 69.005 97.984 69.192 Q 97.946 69.379 97.946 69.529 Q 97.871 70.427 97.797 71.363 Q 97.722 72.299 97.797 73.272 Q 97.797 73.646 97.797 74.058 Q 97.797 74.469 97.722 74.844 L 97.722 75.892 Q 97.647 76.191 97.647 76.528 Q 97.647 76.865 97.572 77.164 L 97.572 77.613 Q 97.497 78.137 97.497 78.624 Q 97.497 79.111 97.347 79.71 Q 97.273 79.859 97.273 80.159 Q 97.422 80.907 97.273 81.731 L 97.273 83.078 Q 97.198 83.602 97.048 84.164 Q 96.898 84.725 96.299 85.099 Q 96.15 85.174 95.775 85.099 Q 95.401 85.024 95.251 84.95 Q 94.727 84.725 94.578 84.351 Q 94.503 84.126 94.391 83.902 Q 94.278 83.677 94.278 83.452 Q 94.203 82.854 94.091 82.217 Q 93.979 81.581 93.979 80.907 Q 93.979 80.159 93.979 79.41 Q 93.979 78.661 93.904 77.913 L 93.904 76.715 Q 93.979 76.416 93.979 76.079 Q 93.979 75.742 93.979 75.443 Q 93.979 74.844 93.941 74.245 Q 93.904 73.646 93.904 73.047 Q 93.904 72.598 93.867 72.186 Q 93.829 71.775 93.754 71.325 Q 93.679 71.026 93.605 70.801 Q 93.53 70.577 93.38 70.352 Q 93.155 69.679 92.482 69.304 Q 92.032 68.93 91.508 69.304 Q 91.209 69.529 90.947 69.716 Q 90.685 69.903 90.386 70.203 L 90.086 70.502 Q 89.637 70.727 89.3 71.063 Q 88.963 71.4 88.589 71.775 Q 88.364 71.999 88.14 72.186 Q 87.915 72.373 87.616 72.523 Q 87.167 72.823 87.017 72.972 Q 86.643 73.272 86.268 73.534 Q 85.894 73.796 85.52 74.17 Q 85.37 74.32 85.22 74.395 Q 85.071 74.469 84.921 74.619 Q 84.771 74.769 84.622 74.919 Q 84.098 75.443 83.536 76.041 Q 82.975 76.64 82.376 77.164 Q 82.002 77.539 81.627 77.95 Q 81.253 78.362 80.953 78.811 Q 80.879 79.036 80.579 79.335 L 80.055 80.009 Q 79.531 80.832 79.157 81.731 Q 78.783 82.629 78.483 83.602 Q 78.259 84.276 78.259 84.95 Q 78.184 85.623 78.184 86.334 Q 78.184 87.046 78.333 87.794 Q 78.333 87.944 78.371 88.131 Q 78.408 88.318 78.333 88.468 Q 78.333 89.067 78.408 89.628 Q 78.483 90.19 78.483 90.788 Q 78.558 90.938 78.595 91.125 Q 78.633 91.312 78.708 91.462 Q 78.857 91.687 79.007 91.911 Q 79.157 92.136 79.157 92.435 Q 79.157 92.51 79.307 92.66 Q 79.456 92.959 79.456 93.109 Q 79.756 93.633 79.831 94.082 Q 79.98 94.606 80.28 94.906 L 80.654 95.355 Q 80.654 95.579 80.804 95.767 Q 80.953 95.954 81.028 96.103 Q 81.328 96.403 81.328 96.702 Q 81.478 97.226 81.777 97.526 Q 81.927 97.675 82.076 97.825 Q 82.226 97.975 82.301 98.125 Q 82.675 98.499 82.675 98.873 Q 82.675 99.098 82.75 99.173 Q 82.975 99.247 83.05 99.472 Q 83.124 99.697 83.199 99.846 Q 83.199 99.921 83.237 99.921 Q 83.274 99.921 83.274 99.996 Q 83.274 100.146 83.948 100.595 Q 84.622 101.044 84.696 100.969 L 84.846 100.819 Q 84.846 100.819 84.884 100.819 Q 84.921 100.819 84.921 100.894 L 84.996 100.894 Q 85.52 101.269 85.37 101.793 Q 85.22 101.793 85.445 102.017 L 85.67 102.167 L 85.744 102.242 Q 86.044 102.616 86.643 102.99 Q 86.792 103.065 87.017 103.065 L 87.316 102.99 Q 87.99 102.841 88.364 103.589 Q 88.364 103.739 88.589 103.963 Q 89.113 104.263 89.674 104.413 Q 90.236 104.562 90.76 104.712 Q 91.059 104.787 91.284 104.824 Q 91.508 104.862 91.808 104.937 Z" transform="matrix(0.800726, 0, 0, 1.487096, -21.956646, -40.970413)" style="fill: rgb(255, 255, 255); paint-order: stroke; stroke: rgb(255, 255, 255); stroke-dashoffset: -5px; stroke-miterlimit: 1; stroke-width: 0px; white-space: pre;"/>
  <path d="M 159.024 138.772 L 158.051 137.874 Q 157.902 137.724 157.902 137.575 L 157.677 136.826 Q 157.677 136.227 157.452 135.554 Q 157.378 135.404 157.378 135.179 Q 157.378 134.955 157.303 134.805 Q 157.303 134.206 157.228 133.645 Q 157.153 133.083 157.003 132.559 L 157.003 132.26 Q 156.928 131.212 156.779 130.126 Q 156.629 129.041 156.629 127.993 L 156.629 126.945 Q 156.629 126.72 156.666 126.496 Q 156.704 126.271 156.629 125.972 Q 156.629 125.523 156.592 124.961 Q 156.554 124.4 156.554 123.876 Q 156.554 123.501 156.554 123.052 Q 156.554 122.603 156.479 122.229 Q 156.404 121.48 156.33 120.732 Q 156.255 119.983 156.18 119.235 Q 156.105 118.486 156.068 117.737 Q 156.03 116.989 156.03 116.24 Q 155.88 115.641 155.806 115.117 Q 155.731 114.593 155.581 114.069 Q 155.431 113.396 155.057 113.021 Q 154.757 112.647 154.495 112.31 Q 154.233 111.973 154.084 111.599 Q 153.934 111.3 153.784 111.15 Q 153.41 110.776 153.073 110.289 Q 152.736 109.802 152.362 109.353 Q 151.988 108.68 151.539 108.156 Q 151.314 107.781 151.052 107.444 Q 150.79 107.108 150.64 106.808 Q 150.491 106.434 150.229 106.172 Q 149.967 105.91 149.742 105.685 L 146.897 102.541 Q 146.224 101.793 145.625 101.044 Q 145.475 100.67 145.251 100.445 Q 145.026 100.221 144.727 99.921 L 142.93 98.05 Q 142.705 97.75 142.443 97.563 Q 142.181 97.376 141.882 97.226 Q 141.283 96.927 140.684 96.328 Q 140.684 96.253 140.534 96.103 Q 140.085 95.804 139.674 95.43 Q 139.262 95.055 138.888 94.681 Q 138.438 94.232 138.214 94.082 Q 137.615 93.483 136.979 92.959 Q 136.342 92.435 135.744 91.837 Q 135.444 91.537 135.182 91.275 Q 134.92 91.013 134.696 90.714 L 134.246 90.264 Q 134.246 90.264 134.209 90.264 Q 134.172 90.264 134.172 90.339 L 134.097 90.414 L 134.097 90.489 Q 134.471 91.986 134.621 93.783 Q 134.621 94.007 134.696 94.082 Q 134.92 94.831 134.883 95.542 Q 134.845 96.253 134.696 97.002 Q 134.546 97.601 134.92 97.975 Q 135.07 98.125 134.92 98.274 Q 134.92 98.649 134.92 98.649 Q 134.995 99.023 134.995 99.397 Q 134.995 99.771 134.995 100.146 Q 134.995 100.67 135.07 100.894 Q 135.294 102.017 135.22 102.99 Q 135.145 103.29 135.145 103.664 Q 135.145 104.038 135.07 104.413 Q 134.995 104.637 135.032 104.824 Q 135.07 105.012 135.07 105.161 Q 135.145 105.461 135.182 105.723 Q 135.22 105.985 135.145 106.284 Q 135.145 106.958 134.845 107.482 Q 134.396 108.23 133.648 108.38 Q 133.423 108.38 133.348 108.455 Q 132.974 108.605 132.974 108.829 Q 132.974 109.204 132.936 109.54 Q 132.899 109.877 132.899 110.252 L 132.899 112.198 Q 132.974 112.872 132.6 113.545 Q 132.375 113.92 132.001 114.069 Q 131.626 114.219 131.252 114.144 Q 130.204 113.77 129.905 112.797 L 129.68 111.898 Q 129.605 111.374 129.418 110.888 Q 129.231 110.401 128.857 109.952 Q 128.707 109.653 128.557 109.353 Q 128.407 109.054 128.258 108.754 Q 127.958 108.081 127.771 107.37 Q 127.584 106.658 127.434 105.91 Q 127.359 105.461 127.359 105.049 Q 127.359 104.637 127.359 104.188 Q 127.359 103.889 127.322 103.589 Q 127.285 103.29 127.285 102.99 Q 127.21 102.466 127.21 101.942 Q 127.21 101.418 127.21 100.894 Q 127.21 100.52 127.21 100.071 Q 127.21 99.622 127.06 99.247 L 127.06 98.948 Q 127.06 98.199 126.985 97.526 Q 126.91 96.852 126.835 96.103 Q 126.835 95.954 126.761 95.879 Q 126.686 95.43 126.611 94.943 Q 126.536 94.457 126.386 94.007 Q 126.237 93.409 126.124 92.81 Q 126.012 92.211 125.862 91.612 Q 125.787 91.088 125.713 90.601 Q 125.638 90.115 125.488 89.591 Q 125.413 89.291 125.376 89.029 Q 125.338 88.767 125.338 88.468 Q 125.263 88.019 125.226 87.607 Q 125.189 87.195 125.189 86.821 Q 125.114 86.222 125.039 85.586 Q 124.964 84.95 124.814 84.351 Q 124.739 83.976 124.702 83.565 Q 124.665 83.153 124.665 82.779 Q 124.59 81.806 124.477 80.907 Q 124.365 80.009 124.365 79.036 Q 124.365 78.661 124.328 78.325 Q 124.29 77.988 124.29 77.688 Q 124.215 77.015 124.103 76.303 Q 123.991 75.592 123.916 74.919 L 123.467 71.924 Q 123.392 71.101 123.317 70.203 Q 123.242 69.304 123.242 68.481 Q 123.242 67.957 123.242 67.433 Q 123.242 66.909 123.167 66.385 Q 123.018 65.412 123.242 64.513 Q 123.467 63.465 124.141 62.717 Q 124.365 62.417 124.59 62.193 Q 124.814 61.968 125.039 61.744 Q 125.488 61.369 126.049 61.22 Q 126.611 61.07 127.135 60.995 Q 127.509 60.995 127.883 61.032 Q 128.258 61.07 128.557 61.145 Q 129.006 61.294 129.493 61.332 Q 129.98 61.369 130.504 61.369 Q 131.477 61.369 132.412 61.369 Q 133.348 61.369 134.321 61.444 Q 136.043 61.444 137.84 61.669 Q 138.888 61.818 139.823 62.08 Q 140.759 62.342 141.732 62.717 Q 143.379 63.316 144.801 64.064 Q 145.475 64.364 146.074 64.775 Q 146.673 65.187 147.197 65.711 Q 147.421 65.936 147.646 66.16 Q 147.871 66.385 148.02 66.684 Q 148.245 66.909 148.469 67.133 Q 148.694 67.358 148.769 67.732 Q 148.919 68.032 148.919 68.032 Q 149.443 68.78 149.705 69.679 Q 149.967 70.577 150.116 71.475 Q 150.266 72.224 150.154 72.935 Q 150.041 73.646 149.967 74.395 Q 149.967 74.919 149.892 75.368 Q 149.817 75.817 149.667 76.266 Q 149.592 77.015 149.255 77.688 Q 148.919 78.362 148.544 78.961 Q 148.544 79.036 148.469 79.073 Q 148.395 79.111 148.32 79.26 Q 147.796 79.859 147.159 80.458 Q 146.523 81.057 145.7 81.506 Q 145.4 81.656 145.138 81.88 Q 144.876 82.105 144.502 82.255 Q 144.352 82.404 144.502 82.554 Q 144.801 82.854 144.951 82.928 Q 145.475 83.378 146.037 83.827 Q 146.598 84.276 147.122 84.725 Q 147.721 85.099 148.17 85.586 Q 148.619 86.072 149.143 86.522 Q 149.667 87.046 150.191 87.57 Q 150.715 88.094 151.239 88.618 Q 151.389 88.692 151.539 88.842 Q 151.688 88.992 151.838 89.142 Q 152.212 89.441 152.512 89.74 Q 152.811 90.04 153.111 90.414 Q 153.26 90.714 153.485 90.901 Q 153.709 91.088 153.934 91.312 Q 154.233 91.537 154.458 91.762 Q 154.683 91.986 154.982 92.286 Q 155.356 92.735 155.806 93.221 Q 156.255 93.708 156.704 94.157 L 157.153 94.681 Q 157.303 94.831 157.452 94.981 Q 157.602 95.13 157.677 95.28 Q 158.351 96.029 159.062 96.777 Q 159.773 97.526 160.522 98.349 L 160.971 98.798 Q 161.42 99.098 161.832 99.584 Q 162.243 100.071 162.618 100.445 Q 162.917 100.67 163.067 101.119 Q 163.142 101.343 163.216 101.531 Q 163.291 101.718 163.366 101.942 Q 163.591 102.541 163.516 103.065 Q 163.441 103.215 163.441 103.589 Q 163.441 104.188 163.179 104.712 Q 162.917 105.236 162.543 105.685 L 161.869 106.284 Q 160.971 107.182 160.746 108.605 Q 160.671 109.353 160.634 110.102 Q 160.596 110.85 160.596 111.674 Q 160.596 112.497 160.596 113.321 Q 160.596 114.144 160.671 114.968 L 160.671 115.941 Q 160.746 116.165 160.746 116.764 L 160.746 127.02 Q 160.746 127.544 160.709 128.105 Q 160.671 128.667 160.671 129.266 Q 160.596 129.565 160.596 129.864 Q 160.596 130.164 160.596 130.463 L 160.596 131.96 Q 160.596 132.335 160.671 132.559 Q 160.821 133.757 160.784 134.955 Q 160.746 136.152 160.821 137.425 Q 160.821 138.099 160.222 138.698 Q 159.623 139.296 159.024 138.772 Z M 132.899 79.036 Q 132.974 78.961 133.049 78.961 Q 133.124 78.961 133.198 78.886 Q 134.396 78.063 135.594 78.137 Q 136.043 78.137 136.268 78.212 Q 136.866 78.362 137.316 77.988 Q 137.989 77.613 138.663 77.351 Q 139.337 77.089 139.936 76.715 Q 140.01 76.715 140.01 76.678 Q 140.01 76.64 140.085 76.64 Q 141.058 76.341 141.882 75.592 Q 142.631 75.068 142.743 74.881 Q 142.855 74.694 143.005 73.721 L 143.005 73.421 Q 143.005 72.972 142.93 72.598 Q 142.855 72.224 142.855 71.924 Q 142.631 71.101 141.957 70.652 Q 141.283 70.203 140.534 69.978 Q 139.711 69.604 138.813 69.417 Q 137.914 69.229 137.091 69.08 Q 137.016 69.08 136.979 69.042 Q 136.941 69.005 136.866 69.005 Q 136.118 68.855 135.519 69.304 Q 135.519 69.304 135.482 69.304 Q 135.444 69.304 135.369 69.379 Q 134.546 69.828 133.872 69.604 L 133.498 69.604 Q 132.375 69.604 131.926 70.577 Q 131.776 71.026 131.776 71.251 Q 131.776 71.625 131.776 72.074 Q 131.776 72.523 131.851 72.897 Q 132.001 73.347 132.001 73.571 Q 132.001 74.095 132.076 74.544 Q 132.15 74.993 132.225 75.443 Q 132.3 75.517 132.3 75.742 Q 132.225 76.041 132.263 76.266 Q 132.3 76.491 132.3 76.79 Q 132.375 77.089 132.412 77.314 Q 132.45 77.539 132.375 77.763 Q 132.375 78.362 132.6 78.961 Q 132.6 79.036 132.712 79.073 Q 132.824 79.111 132.899 79.036 Z" transform="matrix(0.800726, 0, 0, 1.487096, -21.956646, -40.970413)" style="fill: rgb(255, 255, 255); paint-order: stroke; stroke: rgb(255, 255, 255); stroke-dashoffset: -5px; stroke-miterlimit: 1; stroke-width: 0px; white-space: pre;"/>
  <path d="M 189.194 110.476 Q 188.221 110.701 187.173 110.326 Q 186.873 110.252 186.686 110.102 Q 186.499 109.952 186.274 109.802 Q 185.75 109.428 185.451 108.68 L 185.152 107.706 Q 185.152 107.557 185.114 107.444 Q 185.077 107.332 185.077 107.257 Q 185.077 106.209 184.927 105.199 Q 184.777 104.188 184.628 103.215 Q 184.478 102.466 184.366 101.718 Q 184.253 100.969 184.104 100.221 Q 184.104 100.071 184.066 99.996 Q 184.029 99.921 184.029 99.846 Q 183.879 98.948 183.729 98.05 Q 183.58 97.151 183.43 96.328 Q 183.355 95.879 183.318 95.43 Q 183.28 94.981 183.13 94.531 L 182.681 91.238 Q 182.606 90.564 182.494 89.853 Q 182.382 89.142 182.232 88.393 Q 182.157 87.644 182.007 86.933 Q 181.858 86.222 181.708 85.548 L 180.585 80.608 Q 180.435 79.784 180.286 78.961 Q 180.136 78.137 179.911 77.389 Q 179.687 76.715 179.537 76.004 Q 179.387 75.293 179.088 74.619 L 179.013 74.32 Q 178.789 73.347 178.452 72.448 Q 178.115 71.55 177.741 70.652 Q 177.741 70.577 177.703 70.539 Q 177.666 70.502 177.666 70.502 Q 177.516 70.053 177.142 70.203 Q 177.067 70.277 176.917 70.277 Q 176.618 70.352 176.356 70.502 Q 176.094 70.652 175.794 70.801 Q 175.046 71.026 174.522 71.475 L 172.501 72.897 Q 172.051 73.122 171.715 73.496 Q 171.378 73.871 171.078 74.245 Q 170.854 74.544 170.854 74.919 L 170.629 76.266 Q 170.554 77.015 170.479 77.838 Q 170.404 78.661 170.33 79.485 Q 170.255 80.234 170.142 80.87 Q 170.03 81.506 170.03 82.255 Q 170.03 82.854 169.806 83.527 Q 169.581 84.351 168.683 84.575 Q 168.009 84.65 167.56 84.126 Q 167.186 83.752 167.036 83.003 Q 166.961 82.479 166.886 82.03 Q 166.811 81.581 166.811 81.057 L 166.811 78.811 Q 166.811 78.137 166.774 77.539 Q 166.736 76.94 166.811 76.416 Q 166.811 75.143 166.212 73.945 L 165.09 71.625 Q 164.79 71.026 164.566 70.015 Q 164.341 69.005 164.341 68.331 Q 164.491 66.609 165.614 65.486 Q 166.587 64.513 167.859 64.214 Q 168.308 64.064 169.057 63.914 L 173.025 63.241 Q 173.623 63.166 174.185 63.054 Q 174.746 62.941 175.27 62.866 Q 176.393 62.717 177.553 62.567 Q 178.714 62.417 179.911 62.342 Q 180.585 62.268 181.259 62.193 Q 181.933 62.118 182.606 62.043 L 182.906 62.043 Q 183.58 61.968 184.216 61.931 Q 184.852 61.893 185.526 61.818 Q 185.9 61.744 186.274 61.744 Q 186.649 61.744 186.948 61.669 Q 187.023 61.594 187.248 61.594 L 190.017 61.369 Q 190.841 61.294 191.627 61.22 Q 192.413 61.145 193.236 61.07 Q 193.91 60.995 194.584 60.883 Q 195.257 60.77 195.931 60.471 Q 196.605 60.172 197.316 60.284 Q 198.027 60.396 198.626 60.696 Q 198.851 60.77 199.038 60.958 Q 199.225 61.145 199.375 61.294 Q 199.749 61.669 199.973 62.155 Q 200.198 62.642 200.423 63.091 Q 200.647 63.54 200.423 63.989 Q 200.273 64.289 200.235 64.626 Q 200.198 64.962 200.123 65.337 Q 200.123 65.711 199.899 65.936 Q 199.749 66.01 199.599 66.16 Q 199.449 66.31 199.3 66.46 Q 199.075 66.534 198.851 66.909 Q 198.401 67.508 197.578 67.508 Q 197.279 67.508 197.017 67.583 Q 196.755 67.657 196.455 67.732 Q 195.781 67.882 195.557 68.181 Q 195.182 68.556 194.733 68.556 Q 194.209 68.705 193.91 68.256 Q 193.835 68.032 193.536 68.032 Q 193.236 68.107 192.899 68.107 Q 192.562 68.107 192.263 68.107 Q 191.964 68.181 191.627 68.181 Q 191.29 68.181 190.916 68.256 Q 190.616 68.256 190.392 68.294 Q 190.167 68.331 189.868 68.331 Q 189.119 68.406 188.333 68.481 Q 187.547 68.556 186.724 68.631 Q 186.274 68.631 186.05 68.705 Q 185.75 68.855 185.75 69.155 Q 185.676 69.454 185.75 69.903 L 186.2 72.224 Q 186.349 72.897 186.499 73.609 Q 186.649 74.32 186.798 75.068 L 187.023 76.715 Q 187.023 77.015 187.06 77.277 Q 187.098 77.539 187.173 77.838 Q 187.322 78.736 187.51 79.635 Q 187.697 80.533 187.772 81.431 L 187.846 81.731 Q 188.146 82.704 188.296 83.677 Q 188.445 84.65 188.595 85.698 Q 188.745 86.372 188.894 87.083 Q 189.044 87.794 189.119 88.468 Q 189.194 88.992 189.269 89.478 Q 189.344 89.965 189.418 90.489 L 189.418 90.863 Q 189.493 91.462 189.606 92.024 Q 189.718 92.585 189.793 93.184 L 190.017 95.43 Q 190.092 95.954 190.167 96.478 Q 190.242 97.002 190.317 97.601 Q 190.317 97.75 190.354 97.937 Q 190.392 98.125 190.392 98.274 Q 190.392 98.649 190.466 99.06 Q 190.541 99.472 190.616 99.921 Q 190.766 100.745 190.916 101.605 Q 191.065 102.466 191.215 103.365 Q 191.29 103.889 191.44 104.375 Q 191.589 104.862 191.664 105.386 Q 191.739 105.76 192.113 106.134 Q 192.413 106.359 192.263 106.658 Q 192.038 106.958 192.001 107.332 Q 191.964 107.706 191.889 108.081 Q 191.889 108.38 191.814 108.53 Q 191.814 108.904 191.514 109.054 Q 191.215 109.204 190.916 109.653 Q 190.541 110.027 190.317 110.177 Q 190.092 110.401 189.718 110.401 Q 189.568 110.326 189.194 110.476 Z" transform="matrix(0.800726, 0, 0, 1.487096, -21.956646, -40.970413)" style="fill: rgb(255, 255, 255); paint-order: stroke; stroke: rgb(255, 255, 255); stroke-dashoffset: -5px; stroke-miterlimit: 1; stroke-width: 0px; white-space: pre;"/>
  <path d="M 206.331 117.288 Q 206.256 117.288 205.807 117.139 Q 205.583 117.064 205.283 116.615 Q 205.208 116.39 205.133 116.165 Q 205.059 115.941 205.059 115.716 Q 204.834 114.593 204.834 113.47 L 204.834 108.305 Q 204.834 107.632 204.684 106.958 Q 204.535 106.284 204.385 105.61 Q 204.385 105.461 204.235 105.161 Q 204.16 104.937 204.011 104.675 Q 203.861 104.413 203.711 104.188 Q 203.412 103.664 203.262 103.065 Q 203.112 102.466 203.037 101.942 Q 202.963 101.119 203.037 100.37 Q 203.187 99.921 203.262 99.509 Q 203.337 99.098 203.487 98.723 Q 203.711 98.125 203.861 97.488 Q 204.011 96.852 204.235 96.178 L 205.358 92.51 Q 205.882 90.938 206.705 89.291 Q 207.529 87.719 208.277 85.773 Q 208.427 85.324 208.652 84.8 Q 208.951 83.976 209.288 83.19 Q 209.625 82.404 209.924 81.656 L 211.047 78.512 Q 211.197 78.212 211.272 77.913 Q 211.347 77.613 211.421 77.314 Q 212.02 75.817 212.619 74.469 Q 213.068 73.571 213.218 72.523 Q 213.368 71.475 213.218 70.427 Q 213.143 69.978 213.106 69.491 Q 213.068 69.005 213.068 68.556 Q 213.068 68.331 212.956 68.144 Q 212.844 67.957 212.919 67.732 Q 212.994 67.583 213.106 67.433 Q 213.218 67.283 213.293 67.133 Q 213.518 66.31 214.004 65.674 Q 214.491 65.037 215.09 64.513 Q 215.389 64.214 215.913 64.064 Q 216.212 63.914 216.474 63.765 Q 216.736 63.615 216.961 63.39 Q 217.335 63.091 217.784 63.016 Q 218.383 62.941 219.057 62.567 Q 219.656 62.193 220.404 62.342 L 221.078 62.342 Q 221.602 62.342 222.201 62.717 Q 222.351 62.792 222.538 62.904 Q 222.725 63.016 222.95 63.166 Q 223.548 63.615 223.548 64.289 Q 223.548 64.813 223.661 65.262 Q 223.773 65.711 223.848 66.235 Q 223.998 66.684 223.848 67.208 Q 223.773 67.358 223.773 67.545 Q 223.773 67.732 223.698 67.882 Q 223.698 68.181 223.661 68.481 Q 223.623 68.78 223.548 69.08 Q 223.324 69.604 223.698 70.128 Q 224.297 71.101 224.784 72.149 Q 225.27 73.197 225.794 74.245 L 227.142 76.64 Q 227.741 77.613 228.339 78.961 Q 228.489 79.185 228.601 79.41 Q 228.714 79.635 228.863 79.859 Q 229.088 80.234 229.275 80.683 Q 229.462 81.132 229.687 81.581 Q 230.286 82.704 230.697 83.864 Q 231.109 85.024 231.558 86.297 Q 231.558 86.372 231.596 86.409 Q 231.633 86.447 231.633 86.522 Q 231.708 87.046 232.382 87.046 Q 232.606 86.971 232.868 86.971 Q 233.13 86.971 233.355 86.971 Q 234.178 86.971 234.777 87.27 Q 235.151 87.345 235.526 87.719 Q 236.125 88.318 236.349 88.692 Q 236.574 89.067 236.649 89.815 Q 236.948 91.238 236.05 92.286 L 235.601 92.66 Q 235.451 92.81 235.226 92.922 Q 235.002 93.034 234.852 93.184 Q 234.478 93.483 234.44 93.633 Q 234.403 93.783 234.627 94.307 L 235.75 97.002 Q 236.424 98.499 237.135 99.996 Q 237.846 101.493 238.595 102.99 Q 238.894 103.514 239.082 104.038 Q 239.269 104.562 239.344 105.161 Q 239.418 105.61 239.381 106.06 Q 239.344 106.509 239.269 106.958 Q 239.269 107.033 239.119 107.482 Q 238.894 107.781 238.707 108.081 Q 238.52 108.38 238.296 108.68 Q 237.697 109.503 237.322 110.551 Q 237.173 111.225 236.349 111.599 Q 235.9 111.824 235.376 111.599 Q 234.702 111.374 234.478 110.701 L 234.328 110.326 Q 234.103 109.578 233.654 108.904 Q 233.355 108.38 233.093 107.819 Q 232.831 107.257 232.531 106.733 Q 232.457 106.584 232.457 106.471 Q 232.457 106.359 232.382 106.284 Q 232.307 105.835 232.12 105.423 Q 231.933 105.012 231.708 104.637 Q 231.259 103.514 230.772 102.429 Q 230.286 101.343 229.762 100.221 L 228.639 97.825 Q 228.564 97.601 228.489 97.339 Q 228.414 97.077 228.265 96.777 L 227.366 94.756 Q 227.366 94.606 227.217 94.307 Q 226.842 93.708 226.243 93.633 Q 225.719 93.633 225.27 93.558 Q 224.821 93.483 224.372 93.483 Q 223.174 93.483 221.976 93.708 Q 220.779 93.933 219.731 94.531 Q 218.308 95.355 216.811 95.579 Q 216.512 95.579 216.212 95.654 Q 215.913 95.729 215.614 95.879 Q 215.164 96.178 215.09 96.553 Q 214.94 97.002 214.94 97.226 L 214.715 98.274 Q 214.64 98.798 214.116 99.322 Q 213.742 99.697 213.068 99.697 Q 212.095 99.547 211.796 98.723 Q 211.721 98.499 211.646 98.274 Q 211.571 98.05 211.496 97.75 Q 211.197 98.199 211.421 98.499 Q 211.571 98.798 211.272 99.023 Q 211.122 99.173 211.197 99.247 Q 211.347 99.547 211.122 99.771 Q 210.897 99.996 210.972 100.295 Q 211.047 100.445 210.972 100.67 Q 210.598 101.194 210.448 101.942 Q 210.523 102.242 210.074 102.391 Q 209.924 102.391 209.924 102.541 Q 209.775 102.766 209.625 103.215 Q 209.55 103.589 209.438 104.001 Q 209.325 104.413 209.176 104.787 L 208.727 106.658 L 208.727 106.958 Q 208.727 107.632 208.614 108.268 Q 208.502 108.904 208.502 109.578 L 208.277 112.048 Q 208.203 112.572 208.165 113.134 Q 208.128 113.695 208.128 114.294 Q 208.053 114.743 208.015 115.155 Q 207.978 115.566 207.828 116.016 Q 207.679 116.689 207.304 116.989 Q 207.005 117.438 206.331 117.288 Z M 216.063 86.971 L 216.138 86.971 Q 216.886 86.821 217.56 86.746 Q 218.234 86.671 218.907 86.596 Q 219.356 86.522 219.806 86.484 Q 220.255 86.447 220.704 86.447 L 222.276 86.447 Q 222.426 86.447 222.575 86.409 Q 222.725 86.372 222.8 86.372 Q 222.95 86.372 222.95 86.072 Q 222.725 85.773 222.575 85.474 Q 222.426 85.174 222.276 84.875 Q 221.827 83.827 221.078 83.078 Q 221.003 82.928 220.928 82.816 Q 220.854 82.704 220.779 82.554 Q 220.704 82.404 220.592 82.217 Q 220.479 82.03 220.33 81.88 Q 219.955 81.581 219.581 82.03 L 219.356 82.629 Q 219.282 83.228 219.132 83.864 Q 218.982 84.5 218.832 85.099 Q 218.832 85.249 218.683 85.548 Q 218.533 85.998 217.972 86.222 Q 217.41 86.447 216.811 86.072 L 216.362 85.773 Q 216.362 85.773 216.212 85.773 Q 216.063 86.072 216.063 86.222 Q 216.063 86.372 216.1 86.522 Q 216.138 86.671 215.988 86.821 Q 215.838 86.971 216.063 86.971 Z" transform="matrix(0.800726, 0, 0, 1.487096, -21.956646, -40.970413)" style="fill: rgb(255, 255, 255); paint-order: stroke; stroke: rgb(255, 255, 255); stroke-dashoffset: -5px; stroke-miterlimit: 1; stroke-width: 0px; white-space: pre;"/>
  <path d="M 254.766 114.144 Q 254.092 114.444 253.493 114.069 Q 253.268 113.92 253.044 113.732 Q 252.819 113.545 252.67 113.246 Q 252.071 112.348 251.172 111.749 Q 250.723 111.374 250.424 110.963 Q 250.124 110.551 249.9 110.027 L 249.675 109.353 Q 249.376 108.754 249.376 108.006 Q 249.451 107.033 249.451 106.06 Q 249.451 105.086 249.301 104.113 Q 249.226 103.739 249.226 103.402 Q 249.226 103.065 249.226 102.691 Q 249.151 102.092 249.151 101.418 Q 249.151 100.745 249.151 100.146 Q 249.151 99.622 249.151 99.173 Q 249.151 98.723 249.076 98.199 Q 249.002 97.75 249.002 97.301 Q 249.002 96.852 249.002 96.403 L 249.002 83.827 Q 249.002 83.303 248.927 83.078 Q 248.777 82.479 248.777 81.955 Q 248.777 81.431 248.627 80.907 Q 248.627 80.533 248.702 80.383 Q 249.002 79.41 249.002 77.988 Q 248.927 76.64 248.964 75.33 Q 249.002 74.02 248.927 72.673 L 248.927 71.999 L 248.777 71.849 Q 248.702 71.7 248.477 71.924 L 248.178 72.149 Q 248.103 72.299 248.028 72.411 Q 247.953 72.523 247.804 72.673 Q 247.355 73.272 246.531 73.421 Q 246.007 73.571 245.708 73.272 Q 245.483 73.122 245.259 72.935 Q 245.034 72.748 244.884 72.598 Q 244.51 72.224 244.098 71.812 Q 243.687 71.4 243.237 71.026 Q 242.264 70.277 241.89 68.93 L 241.665 68.107 Q 241.591 67.358 241.815 66.609 Q 241.965 66.16 242.115 65.711 Q 242.264 65.262 242.414 64.888 Q 242.564 64.289 242.938 63.989 Q 243.312 63.69 243.761 63.465 Q 243.911 63.465 244.061 63.428 Q 244.211 63.39 244.285 63.39 Q 244.51 63.241 244.51 63.166 Q 244.66 62.792 244.959 62.941 Q 245.109 62.941 245.109 62.717 Q 245.184 62.642 245.333 62.642 Q 245.483 62.717 245.595 62.829 Q 245.708 62.941 245.857 63.016 Q 245.932 63.091 246.232 63.091 Q 246.531 62.941 246.831 62.941 Q 247.13 62.941 247.429 62.941 Q 247.804 62.941 248.215 62.829 Q 248.627 62.717 249.002 62.642 Q 249.226 62.492 249.376 62.268 L 249.6 61.294 L 249.825 60.172 Q 249.9 59.797 250.05 59.498 Q 250.199 59.198 250.349 58.899 L 250.648 58.45 Q 251.397 57.102 253.044 56.728 Q 253.194 56.653 253.268 56.653 Q 253.343 56.653 253.418 56.578 Q 253.643 56.504 253.867 56.504 Q 254.092 56.504 254.316 56.504 L 254.915 56.504 Q 256.338 56.578 257.086 57.776 Q 257.236 58.001 257.386 58.3 Q 257.535 58.6 257.61 58.899 Q 257.835 59.348 258.359 59.273 Q 258.434 59.198 258.583 59.198 Q 259.407 58.974 260.23 58.749 Q 261.054 58.525 261.877 58.225 Q 262.85 57.851 263.823 57.589 Q 264.797 57.327 265.77 57.028 Q 266.593 56.728 267.454 56.504 Q 268.315 56.279 269.138 56.054 L 270.935 55.605 Q 272.207 55.231 273.555 54.932 Q 274.902 54.632 276.175 54.333 Q 276.849 54.183 277.522 53.883 Q 278.046 53.509 278.645 53.472 Q 279.244 53.434 279.768 53.434 L 281.265 53.434 Q 282.388 53.509 283.062 54.333 Q 283.885 55.081 283.96 56.354 L 283.96 56.953 Q 283.96 57.926 283.286 58.6 Q 282.613 59.273 281.939 59.722 Q 281.864 59.797 281.752 59.797 Q 281.64 59.797 281.49 59.872 Q 280.816 59.872 280.068 60.246 Q 279.544 60.471 278.945 60.321 Q 278.57 60.172 278.196 60.209 Q 277.822 60.246 277.448 60.321 Q 277.148 60.396 276.849 60.471 Q 276.549 60.546 276.25 60.621 Q 275.95 60.696 275.651 60.77 Q 275.352 60.845 274.977 60.92 Q 273.181 61.145 271.683 62.118 Q 271.534 62.268 271.234 62.268 Q 270.785 62.268 270.561 62.417 Q 270.261 62.492 269.999 62.642 Q 269.737 62.792 269.438 62.941 Q 269.138 63.091 268.764 63.241 Q 268.39 63.39 268.015 63.54 Q 267.566 63.615 267.117 63.765 Q 266.668 63.914 266.219 64.064 Q 265.994 64.139 265.807 64.214 Q 265.62 64.289 265.47 64.364 Q 264.722 64.588 264.011 64.962 Q 263.299 65.337 262.626 65.786 L 262.251 66.01 Q 261.952 66.085 261.578 66.235 Q 261.203 66.385 260.829 66.534 Q 260.455 66.609 260.08 66.759 Q 259.706 66.909 259.332 67.133 Q 259.257 67.208 259.22 67.208 Q 259.182 67.208 259.182 67.208 Q 258.658 67.283 258.321 67.62 Q 257.984 67.957 257.61 68.331 Q 257.46 68.481 257.46 68.705 L 257.46 74.769 Q 257.46 75.068 257.423 75.368 Q 257.386 75.667 257.311 76.041 Q 257.311 76.491 257.236 76.64 Q 257.236 77.464 257.984 77.239 Q 259.032 76.94 260.118 76.64 Q 261.203 76.341 262.177 76.041 Q 263.225 75.667 264.16 75.368 Q 265.096 75.068 266.069 74.769 Q 266.443 74.694 266.743 74.582 Q 267.042 74.469 267.342 74.395 Q 268.539 73.945 269.775 73.496 Q 271.01 73.047 272.207 72.748 Q 273.031 72.598 273.779 72.336 Q 274.528 72.074 275.277 71.849 Q 275.95 71.625 276.624 71.475 Q 277.298 71.325 277.897 71.176 Q 278.346 71.101 278.795 71.138 Q 279.244 71.176 279.618 71.4 Q 279.768 71.475 279.955 71.513 Q 280.142 71.55 280.292 71.625 Q 280.666 71.625 280.891 71.924 Q 281.041 71.999 281.153 72.074 Q 281.265 72.149 281.415 72.299 Q 281.415 72.299 281.64 72.523 Q 281.64 72.598 281.677 72.635 Q 281.714 72.673 281.714 72.823 Q 282.313 73.721 282.351 73.983 Q 282.388 74.245 282.463 74.993 Q 282.463 75.443 282.238 75.592 L 282.014 75.892 Q 281.714 76.715 280.816 77.089 Q 280.517 77.239 280.255 77.426 Q 279.993 77.613 279.618 77.763 L 279.244 77.988 Q 278.945 78.287 278.57 78.287 Q 277.747 78.437 276.961 78.736 Q 276.175 79.036 275.352 79.26 Q 275.052 79.335 274.753 79.635 Q 274.229 80.084 273.48 80.308 Q 273.181 80.383 272.919 80.496 Q 272.657 80.608 272.282 80.683 Q 271.01 81.057 269.775 81.581 Q 268.539 82.105 267.267 82.629 Q 266.743 82.854 266.181 83.078 Q 265.62 83.303 265.021 83.452 Q 264.647 83.602 264.198 83.789 Q 263.749 83.976 263.374 84.276 Q 263.075 84.426 262.775 84.538 Q 262.476 84.65 262.102 84.8 Q 260.979 85.174 259.856 85.548 Q 258.733 85.923 257.535 86.297 Q 257.311 86.297 257.236 86.372 Q 256.862 86.522 256.862 86.821 Q 256.787 87.27 256.749 87.682 Q 256.712 88.094 256.712 88.468 L 256.712 88.917 Q 256.862 89.216 256.862 89.628 Q 256.862 90.04 256.862 90.414 Q 256.862 90.564 256.712 90.863 Q 256.412 91.163 256.412 91.687 Q 256.338 92.136 256.338 92.585 Q 256.338 93.034 256.188 93.483 Q 256.113 94.007 256.15 94.457 Q 256.188 94.906 256.412 95.355 Q 256.637 95.804 256.637 96.328 Q 256.562 97.601 257.011 99.173 Q 257.086 99.397 257.086 99.921 Q 256.862 100.595 257.011 101.643 Q 257.011 101.942 257.011 102.354 Q 257.011 102.766 256.936 103.14 Q 256.787 103.365 256.936 103.963 Q 256.936 104.113 256.974 104.3 Q 257.011 104.488 257.011 104.637 Q 257.086 105.61 257.198 106.584 Q 257.311 107.557 257.386 108.53 Q 257.46 108.979 257.386 109.391 Q 257.311 109.802 257.161 110.177 Q 256.936 111.225 256.412 111.898 Q 256.113 112.273 255.888 112.684 Q 255.664 113.096 255.439 113.47 Q 255.364 113.695 255.14 113.845 Q 254.915 113.994 254.766 114.144 Z" transform="matrix(0.800726, 0, 0, 1.487096, -21.956646, -40.970413)" style="fill: rgb(255, 255, 255); paint-order: stroke; stroke: rgb(255, 255, 255); stroke-dashoffset: -5px; stroke-miterlimit: 1; stroke-width: 0px; white-space: pre;"/>
  <path d="M 314.582 112.722 Q 313.534 112.946 312.635 112.422 Q 312.111 112.123 311.587 111.936 Q 311.063 111.749 310.464 111.674 Q 309.716 111.524 309.005 111.337 Q 308.293 111.15 307.545 110.85 Q 307.245 110.701 306.983 110.551 Q 306.721 110.401 306.422 110.177 Q 306.197 109.877 305.823 109.802 Q 305.299 109.578 304.7 109.054 Q 304.551 108.904 304.476 108.754 Q 304.176 108.455 303.839 108.23 Q 303.503 108.006 303.128 107.781 Q 302.155 107.182 300.957 106.359 Q 300.733 106.209 300.583 105.985 Q 300.284 105.61 299.872 105.311 Q 299.46 105.012 299.086 104.712 L 297.065 103.365 Q 296.99 103.29 296.84 103.252 Q 296.69 103.215 296.541 103.14 Q 295.568 102.691 294.969 101.867 Q 294.37 101.119 293.846 100.295 Q 293.322 99.472 292.873 98.723 Q 292.723 98.574 292.573 98.274 Q 292.274 97.9 292.049 97.451 Q 291.825 97.002 291.675 96.627 Q 291.525 96.253 291.376 95.804 L 291.151 94.681 Q 290.926 94.082 290.852 93.446 Q 290.777 92.81 290.627 92.211 Q 290.552 91.762 290.402 91.275 Q 290.253 90.788 290.028 90.339 Q 289.878 90.115 289.804 89.853 Q 289.729 89.591 289.579 89.291 Q 289.504 89.142 289.504 88.767 Q 289.429 88.168 289.467 87.57 Q 289.504 86.971 289.729 86.447 L 289.953 85.623 Q 290.103 85.249 290.178 84.875 Q 290.253 84.5 290.328 84.201 Q 290.328 83.677 290.178 83.452 Q 290.103 83.303 290.028 83.116 Q 289.953 82.928 289.878 82.779 Q 289.504 82.03 289.804 81.431 L 290.028 80.832 Q 290.253 80.458 290.253 80.084 Q 290.253 78.886 291.001 77.613 Q 291.525 76.715 292.049 76.191 Q 292.498 75.742 292.723 75.293 Q 293.022 74.694 293.546 74.17 Q 294.22 73.496 294.37 72.972 Q 294.52 72.598 294.744 72.373 L 295.942 71.176 Q 296.466 70.502 295.942 69.903 Q 295.717 69.604 295.605 69.267 Q 295.493 68.93 295.343 68.631 Q 295.118 67.358 295.867 66.385 Q 296.166 66.01 296.503 65.711 Q 296.84 65.412 297.289 65.262 Q 297.514 65.187 297.701 65.112 Q 297.888 65.037 298.113 64.962 Q 298.487 64.888 298.899 64.738 Q 299.311 64.588 299.685 64.438 Q 299.984 64.289 300.209 64.214 Q 300.433 64.139 300.733 64.139 Q 301.032 64.064 301.257 64.027 Q 301.481 63.989 301.706 63.989 Q 302.305 63.914 302.904 63.39 Q 303.952 62.567 305.037 61.706 Q 306.123 60.845 307.096 59.947 Q 307.695 59.423 308.406 58.974 Q 309.117 58.525 309.866 58.15 Q 310.39 57.926 310.988 57.776 Q 311.363 57.626 311.812 57.552 Q 312.261 57.477 312.635 57.402 L 314.207 57.177 Q 315.255 57.102 316.191 56.953 Q 317.127 56.803 318.1 56.653 Q 318.25 56.653 318.399 56.616 Q 318.549 56.578 318.624 56.578 L 319.597 56.578 Q 320.121 56.578 320.57 56.616 Q 321.019 56.653 321.468 56.803 Q 322.067 57.028 322.517 57.364 Q 322.966 57.701 323.265 58.3 Q 323.789 59.049 323.864 59.722 Q 323.939 60.172 323.976 60.621 Q 324.014 61.07 324.014 61.519 L 324.014 62.193 Q 324.014 62.417 324.238 62.567 L 324.687 62.792 Q 325.735 63.166 326.709 63.765 Q 327.682 64.364 328.58 65.037 Q 329.179 65.412 329.478 65.786 Q 330.002 66.31 330.451 66.797 Q 330.901 67.283 331.35 67.807 Q 331.649 68.181 331.949 68.518 Q 332.248 68.855 332.547 69.229 Q 332.772 69.454 332.847 69.604 Q 332.997 70.053 333.371 70.502 Q 333.82 71.251 334.12 71.999 Q 334.344 72.598 334.569 73.234 Q 334.793 73.871 334.943 74.544 Q 334.943 74.769 335.093 75.218 Q 335.168 75.443 335.205 75.63 Q 335.242 75.817 335.242 75.967 Q 335.317 76.416 335.43 76.865 Q 335.542 77.314 335.617 77.763 Q 335.692 78.137 335.766 78.549 Q 335.841 78.961 335.916 79.41 Q 335.991 80.084 336.141 80.795 Q 336.29 81.506 336.365 82.18 L 336.365 82.554 Q 336.365 83.378 336.478 84.238 Q 336.59 85.099 336.59 85.923 Q 336.59 86.222 336.59 86.596 Q 336.59 86.971 336.515 87.345 Q 336.44 87.495 336.44 87.719 Q 336.44 88.618 336.29 89.478 Q 336.141 90.339 335.991 91.163 Q 335.467 94.082 334.419 97.077 Q 334.344 97.376 334.269 97.713 Q 334.194 98.05 334.045 98.424 L 332.922 101.718 Q 332.847 102.017 332.66 102.354 Q 332.473 102.691 332.323 103.065 L 330.975 105.461 Q 330.526 106.284 329.89 106.995 Q 329.254 107.706 328.355 108.23 Q 327.457 108.754 326.709 109.653 Q 326.185 110.401 325.062 110.551 Q 324.538 110.626 324.051 110.663 Q 323.565 110.701 323.115 110.85 L 322.367 111.075 Q 322.292 111.075 322.255 111.112 Q 322.217 111.15 322.067 111.15 Q 321.244 111.3 320.383 111.524 Q 319.522 111.749 318.699 111.898 Q 318.549 111.973 318.25 111.973 Q 317.8 111.973 317.351 112.048 Q 316.902 112.123 316.453 112.273 Z M 312.56 104.937 Q 313.01 105.012 313.384 104.862 Q 313.683 104.712 313.983 104.787 L 314.582 104.787 Q 314.956 104.787 315.255 104.787 Q 315.555 104.787 315.854 104.637 Q 316.079 104.488 316.715 104.375 Q 317.351 104.263 317.351 104.263 Q 317.95 104.113 318.549 103.926 Q 319.148 103.739 319.747 103.439 L 322.891 102.092 Q 323.49 101.867 324.014 101.531 Q 324.538 101.194 325.062 100.894 Q 325.436 100.52 325.735 100.37 Q 326.185 99.996 326.409 99.472 Q 326.559 99.098 326.709 98.723 Q 326.858 98.349 326.933 97.975 Q 327.233 97.151 327.457 96.291 Q 327.682 95.43 327.981 94.606 Q 328.355 93.483 328.692 92.398 Q 329.029 91.312 329.254 90.115 Q 329.329 89.74 329.403 89.291 Q 329.478 88.842 329.553 88.393 Q 329.628 87.869 329.628 87.345 Q 329.628 86.821 329.703 86.297 L 329.703 85.773 Q 329.703 85.249 329.665 84.725 Q 329.628 84.201 329.628 83.677 Q 329.553 82.33 329.329 80.982 Q 329.104 79.635 328.805 78.287 Q 328.655 77.688 328.543 77.127 Q 328.43 76.565 328.281 76.041 Q 328.056 74.993 327.607 74.058 Q 327.158 73.122 326.559 72.224 Q 326.484 71.999 326.334 71.999 Q 325.81 71.4 325.211 70.801 Q 324.613 70.203 323.789 69.903 Q 323.49 69.828 323.19 69.604 Q 322.891 69.454 322.591 69.304 Q 322.292 69.155 321.918 69.08 Q 320.645 68.78 319.148 68.631 Q 319.073 68.556 318.923 68.631 Q 318.774 68.705 318.774 68.855 Q 318.774 69.005 318.736 69.192 Q 318.699 69.379 318.699 69.529 Q 318.624 70.427 318.549 71.363 Q 318.474 72.299 318.549 73.272 Q 318.549 73.646 318.549 74.058 Q 318.549 74.469 318.474 74.844 L 318.474 75.892 Q 318.399 76.191 318.399 76.528 Q 318.399 76.865 318.324 77.164 L 318.324 77.613 Q 318.25 78.137 318.25 78.624 Q 318.25 79.111 318.1 79.71 Q 318.025 79.859 318.025 80.159 Q 318.175 80.907 318.025 81.731 L 318.025 83.078 Q 317.95 83.602 317.8 84.164 Q 317.651 84.725 317.052 85.099 Q 316.902 85.174 316.528 85.099 Q 316.154 85.024 316.004 84.95 Q 315.48 84.725 315.33 84.351 Q 315.255 84.126 315.143 83.902 Q 315.031 83.677 315.031 83.452 Q 314.956 82.854 314.844 82.217 Q 314.731 81.581 314.731 80.907 Q 314.731 80.159 314.731 79.41 Q 314.731 78.661 314.656 77.913 L 314.656 76.715 Q 314.731 76.416 314.731 76.079 Q 314.731 75.742 314.731 75.443 Q 314.731 74.844 314.694 74.245 Q 314.656 73.646 314.656 73.047 Q 314.656 72.598 314.619 72.186 Q 314.582 71.775 314.507 71.325 Q 314.432 71.026 314.357 70.801 Q 314.282 70.577 314.132 70.352 Q 313.908 69.679 313.234 69.304 Q 312.785 68.93 312.261 69.304 Q 311.962 69.529 311.7 69.716 Q 311.438 69.903 311.138 70.203 L 310.839 70.502 Q 310.39 70.727 310.053 71.063 Q 309.716 71.4 309.342 71.775 Q 309.117 71.999 308.892 72.186 Q 308.668 72.373 308.368 72.523 Q 307.919 72.823 307.769 72.972 Q 307.395 73.272 307.021 73.534 Q 306.647 73.796 306.272 74.17 Q 306.123 74.32 305.973 74.395 Q 305.823 74.469 305.673 74.619 Q 305.524 74.769 305.374 74.919 Q 304.85 75.443 304.289 76.041 Q 303.727 76.64 303.128 77.164 Q 302.754 77.539 302.38 77.95 Q 302.005 78.362 301.706 78.811 Q 301.631 79.036 301.332 79.335 L 300.808 80.009 Q 300.284 80.832 299.909 81.731 Q 299.535 82.629 299.236 83.602 Q 299.011 84.276 299.011 84.95 Q 298.936 85.623 298.936 86.334 Q 298.936 87.046 299.086 87.794 Q 299.086 87.944 299.123 88.131 Q 299.161 88.318 299.086 88.468 Q 299.086 89.067 299.161 89.628 Q 299.236 90.19 299.236 90.788 Q 299.311 90.938 299.348 91.125 Q 299.385 91.312 299.46 91.462 Q 299.61 91.687 299.76 91.911 Q 299.909 92.136 299.909 92.435 Q 299.909 92.51 300.059 92.66 Q 300.209 92.959 300.209 93.109 Q 300.508 93.633 300.583 94.082 Q 300.733 94.606 301.032 94.906 L 301.407 95.355 Q 301.407 95.579 301.556 95.767 Q 301.706 95.954 301.781 96.103 Q 302.08 96.403 302.08 96.702 Q 302.23 97.226 302.529 97.526 Q 302.679 97.675 302.829 97.825 Q 302.979 97.975 303.053 98.125 Q 303.428 98.499 303.428 98.873 Q 303.428 99.098 303.503 99.173 Q 303.727 99.247 303.802 99.472 Q 303.877 99.697 303.952 99.846 Q 303.952 99.921 303.989 99.921 Q 304.027 99.921 304.027 99.996 Q 304.027 100.146 304.7 100.595 Q 305.374 101.044 305.449 100.969 L 305.599 100.819 Q 305.599 100.819 305.636 100.819 Q 305.673 100.819 305.673 100.894 L 305.748 100.894 Q 306.272 101.269 306.123 101.793 Q 305.973 101.793 306.197 102.017 L 306.422 102.167 L 306.497 102.242 Q 306.796 102.616 307.395 102.99 Q 307.545 103.065 307.769 103.065 L 308.069 102.99 Q 308.743 102.841 309.117 103.589 Q 309.117 103.739 309.342 103.963 Q 309.866 104.263 310.427 104.413 Q 310.988 104.562 311.512 104.712 Q 311.812 104.787 312.036 104.824 Q 312.261 104.862 312.56 104.937 Z" transform="matrix(0.800726, 0, 0, 1.487096, -21.956646, -40.970413)" style="fill: rgb(255, 255, 255); paint-order: stroke; stroke: rgb(255, 255, 255); stroke-dashoffset: -5px; stroke-miterlimit: 1; stroke-width: 0px; white-space: pre;"/>
  <path d="M 372.971 119.384 Q 372.223 119.309 371.849 118.486 Q 371.774 118.411 371.774 118.112 Q 371.699 117.513 371.587 116.914 Q 371.474 116.315 371.549 115.716 L 371.549 115.342 Q 371.474 114.668 371.474 113.994 Q 371.474 113.321 371.399 112.722 Q 371.25 111.449 370.501 110.776 L 369.827 110.102 Q 369.453 109.653 368.854 109.802 Q 368.405 109.877 367.993 109.877 Q 367.582 109.877 367.133 109.802 Q 366.833 109.802 366.496 109.84 Q 366.159 109.877 365.785 109.877 Q 365.486 109.877 365.149 109.84 Q 364.812 109.802 364.512 109.877 Q 364.213 109.952 363.951 109.952 Q 363.689 109.952 363.464 109.952 L 360.919 109.952 Q 360.096 109.952 359.198 110.177 L 357.401 110.626 Q 356.503 110.925 355.604 111.075 Q 355.305 111.15 355.006 111.225 Q 354.706 111.3 354.407 111.449 Q 353.284 111.973 352.236 112.048 Q 351.562 112.198 351.263 112.647 L 350.888 113.096 Q 350.739 113.171 350.589 113.283 Q 350.439 113.396 350.289 113.545 Q 349.765 113.845 349.167 113.545 Q 348.493 113.171 348.343 112.722 Q 348.343 112.647 348.306 112.61 Q 348.268 112.572 348.268 112.497 Q 347.744 111.225 346.547 110.252 Q 346.247 110.027 346.023 109.728 Q 345.948 109.503 345.798 109.316 Q 345.648 109.129 345.499 108.979 L 345.049 108.305 Q 344.75 107.781 344.825 107.108 Q 344.9 106.733 344.937 106.322 Q 344.975 105.91 345.049 105.536 L 345.049 105.086 Q 345.049 104.263 345.049 103.402 Q 345.049 102.541 345.124 101.793 L 345.124 101.044 Q 345.274 100.745 345.237 100.483 Q 345.199 100.221 345.199 99.921 Q 345.274 98.948 345.237 98.012 Q 345.199 97.077 345.274 96.103 L 345.499 92.735 Q 345.573 91.911 345.611 91.163 Q 345.648 90.414 345.648 89.666 L 345.648 89.441 Q 345.798 88.543 345.798 87.644 Q 345.798 86.746 345.798 85.773 L 345.798 80.608 Q 345.723 79.784 345.686 78.961 Q 345.648 78.137 345.648 77.314 Q 345.648 76.416 345.573 75.48 Q 345.499 74.544 345.349 73.571 Q 345.274 72.972 345.162 72.299 Q 345.049 71.625 345.049 70.951 Q 345.049 70.801 345.012 70.652 Q 344.975 70.502 344.975 70.352 Q 344.525 68.331 344.525 66.235 L 344.525 63.091 Q 344.525 62.567 344.563 62.08 Q 344.6 61.594 344.675 61.07 Q 344.825 60.172 345.274 59.722 L 345.648 59.273 Q 346.097 58.674 346.696 58.412 Q 347.295 58.15 347.969 58.076 L 348.493 58.076 Q 349.616 58.076 350.289 58.899 Q 350.439 58.974 350.514 59.049 Q 350.589 59.124 350.664 59.198 Q 351.038 59.498 351.113 59.872 Q 351.487 60.621 351.525 60.845 Q 351.562 61.07 351.562 61.893 L 351.562 62.417 Q 351.562 62.941 351.562 63.428 Q 351.562 63.914 351.637 64.438 Q 351.712 64.588 351.712 64.888 Q 351.712 65.412 351.749 65.936 Q 351.787 66.46 351.861 66.984 Q 351.936 67.732 352.011 68.443 Q 352.086 69.155 352.086 69.978 Q 352.086 70.128 352.123 70.315 Q 352.161 70.502 352.161 70.652 Q 352.161 70.727 352.198 70.839 Q 352.236 70.951 352.236 71.101 L 352.46 74.919 Q 352.535 75.293 352.535 75.705 Q 352.535 76.116 352.535 76.565 Q 352.61 76.64 352.61 76.94 Q 352.535 77.314 352.535 77.726 Q 352.535 78.137 352.61 78.512 L 352.61 83.452 Q 352.535 83.902 352.61 84.351 L 352.61 84.8 Q 352.535 85.399 352.535 86.035 Q 352.535 86.671 352.46 87.345 Q 352.46 87.869 352.46 88.43 Q 352.46 88.992 352.385 89.591 Q 352.311 89.89 352.311 90.264 Q 352.311 90.639 352.311 91.013 Q 352.311 91.312 352.273 91.724 Q 352.236 92.136 352.161 92.51 L 352.161 92.735 Q 352.086 93.483 352.049 94.232 Q 352.011 94.981 351.936 95.804 Q 351.861 96.178 351.861 96.627 Q 351.861 97.077 351.787 97.526 Q 351.712 97.825 351.712 98.274 Q 351.712 98.649 351.712 99.023 Q 351.712 99.397 351.637 99.771 Q 351.562 100.595 351.562 101.381 Q 351.562 102.167 351.562 102.99 L 351.562 103.065 Q 351.712 103.439 351.936 103.439 L 353.433 103.664 Q 355.23 103.889 356.952 103.889 Q 357.401 103.889 357.7 103.814 Q 358.075 103.739 358.524 103.739 Q 358.973 103.739 359.347 103.664 L 361.443 103.664 Q 361.967 103.664 362.491 103.552 Q 363.015 103.439 363.539 103.365 L 363.914 103.365 Q 364.737 103.365 365.56 103.252 Q 366.384 103.14 367.207 103.14 L 369.678 103.14 Q 370.726 103.14 371.474 102.691 Q 372.073 102.466 372.635 102.391 Q 373.196 102.317 373.795 102.242 Q 374.693 102.242 375.367 102.691 Q 376.864 103.589 377.313 105.161 Q 377.463 105.685 377.5 106.284 Q 377.538 106.883 377.463 107.482 Q 377.388 108.156 377.163 108.717 Q 376.939 109.278 376.565 109.877 L 375.891 110.85 Q 375.442 111.674 375.217 112.497 Q 375.142 113.171 374.993 113.807 Q 374.843 114.444 374.843 115.117 Q 374.843 115.417 374.805 115.716 Q 374.768 116.016 374.768 116.315 Q 374.693 116.615 374.693 116.839 Q 374.693 117.064 374.693 117.363 Q 374.693 117.962 374.319 118.711 Q 373.87 119.459 372.971 119.384 Z" transform="matrix(0.800726, 0, 0, 1.487096, -21.956646, -40.970413)" style="fill: rgb(255, 255, 255); paint-order: stroke; stroke: rgb(255, 255, 255); stroke-dashoffset: -5px; stroke-miterlimit: 1; stroke-width: 0px; white-space: pre;"/>
  <path d="M 392.66 111.3 Q 392.585 111.3 392.472 111.262 Q 392.36 111.225 392.21 111.225 Q 391.686 111.225 391.462 110.776 Q 391.162 110.252 390.863 109.877 Q 390.564 109.503 390.189 109.129 Q 389.815 108.754 389.553 108.305 Q 389.291 107.856 389.066 107.407 Q 388.842 107.033 388.842 106.658 L 388.842 105.91 Q 388.842 105.536 388.804 105.124 Q 388.767 104.712 388.692 104.338 Q 388.542 103.739 388.43 103.065 Q 388.318 102.391 388.168 101.793 Q 388.168 101.643 388.131 101.456 Q 388.093 101.269 388.093 101.119 Q 388.018 100.295 387.869 99.435 Q 387.719 98.574 387.569 97.75 Q 387.345 96.253 387.083 94.793 Q 386.821 93.334 386.596 91.911 L 386.147 89.441 Q 386.072 88.842 385.698 88.168 Q 385.249 87.345 385.024 86.372 Q 384.949 85.923 384.799 85.511 Q 384.65 85.099 384.5 84.65 Q 384.275 83.902 384.051 83.153 Q 383.826 82.404 383.677 81.656 Q 383.602 81.057 383.452 80.458 Q 383.302 79.859 383.153 79.26 L 382.703 77.239 Q 382.703 77.089 382.629 77.015 Q 382.554 75.967 382.329 74.881 Q 382.105 73.796 381.88 72.748 Q 381.805 72.149 381.693 71.288 Q 381.581 70.427 381.655 69.903 L 381.655 69.155 Q 381.805 68.107 382.329 67.208 Q 382.928 66.16 384.275 65.561 Q 384.65 65.412 385.024 65.337 Q 385.398 65.262 385.698 65.187 Q 386.521 65.112 387.27 65.374 Q 388.018 65.636 388.767 66.085 Q 388.992 66.235 389.141 66.46 Q 389.366 66.834 389.628 67.208 Q 389.89 67.583 389.965 68.032 Q 390.114 68.481 390.302 68.93 Q 390.489 69.379 390.713 69.753 Q 391.088 70.502 391.237 71.325 Q 391.387 72.149 391.537 72.972 Q 391.761 74.095 391.761 75.368 L 391.761 75.742 Q 391.911 76.491 391.911 77.202 Q 391.911 77.913 391.911 78.661 Q 391.986 79.859 392.136 81.02 Q 392.285 82.18 392.435 83.452 L 392.884 86.971 L 392.884 87.12 Q 393.034 87.944 393.221 88.805 Q 393.408 89.666 393.483 90.489 Q 393.708 91.762 393.97 93.072 Q 394.232 94.382 394.381 95.654 L 394.83 98.798 Q 394.98 99.547 395.092 100.295 Q 395.205 101.044 395.354 101.793 Q 395.504 102.541 395.616 103.252 Q 395.729 103.963 395.878 104.712 Q 395.953 105.012 395.991 105.274 Q 396.028 105.536 396.028 105.835 Q 396.103 106.958 395.654 108.006 Q 395.579 108.305 395.28 108.605 Q 394.98 109.054 394.756 109.204 Q 394.157 109.802 393.857 110.476 Q 393.857 110.551 393.745 110.701 Q 393.633 110.85 393.483 111 Q 393.184 111.3 392.66 111.3 Z" transform="matrix(0.800726, 0, 0, 1.487096, -21.956646, -40.970413)" style="fill: rgb(255, 255, 255); paint-order: stroke; stroke: rgb(255, 255, 255); stroke-dashoffset: -5px; stroke-miterlimit: 1; stroke-width: 0px; white-space: pre;"/>
  <path d="M 428.444 112.722 Q 427.396 112.946 426.498 112.422 Q 425.974 112.123 425.45 111.936 Q 424.926 111.749 424.327 111.674 Q 423.579 111.524 422.868 111.337 Q 422.156 111.15 421.408 110.85 Q 421.108 110.701 420.846 110.551 Q 420.584 110.401 420.285 110.177 Q 420.06 109.877 419.686 109.802 Q 419.162 109.578 418.563 109.054 Q 418.414 108.904 418.339 108.754 Q 418.039 108.455 417.702 108.23 Q 417.365 108.006 416.991 107.781 Q 416.018 107.182 414.82 106.359 Q 414.596 106.209 414.446 105.985 Q 414.147 105.61 413.735 105.311 Q 413.323 105.012 412.949 104.712 L 410.928 103.365 Q 410.853 103.29 410.703 103.252 Q 410.553 103.215 410.404 103.14 Q 409.431 102.691 408.832 101.867 Q 408.233 101.119 407.709 100.295 Q 407.185 99.472 406.736 98.723 Q 406.586 98.574 406.436 98.274 Q 406.137 97.9 405.912 97.451 Q 405.688 97.002 405.538 96.627 Q 405.388 96.253 405.238 95.804 L 405.014 94.681 Q 404.789 94.082 404.714 93.446 Q 404.64 92.81 404.49 92.211 Q 404.415 91.762 404.265 91.275 Q 404.116 90.788 403.891 90.339 Q 403.741 90.115 403.666 89.853 Q 403.592 89.591 403.442 89.291 Q 403.367 89.142 403.367 88.767 Q 403.292 88.168 403.33 87.57 Q 403.367 86.971 403.592 86.447 L 403.816 85.623 Q 403.966 85.249 404.041 84.875 Q 404.116 84.5 404.19 84.201 Q 404.19 83.677 404.041 83.452 Q 403.966 83.303 403.891 83.116 Q 403.816 82.928 403.741 82.779 Q 403.367 82.03 403.666 81.431 L 403.891 80.832 Q 404.116 80.458 404.116 80.084 Q 404.116 78.886 404.864 77.613 Q 405.388 76.715 405.912 76.191 Q 406.361 75.742 406.586 75.293 Q 406.885 74.694 407.409 74.17 Q 408.083 73.496 408.233 72.972 Q 408.383 72.598 408.607 72.373 L 409.805 71.176 Q 410.329 70.502 409.805 69.903 Q 409.58 69.604 409.468 69.267 Q 409.356 68.93 409.206 68.631 Q 408.981 67.358 409.73 66.385 Q 410.029 66.01 410.366 65.711 Q 410.703 65.412 411.152 65.262 Q 411.377 65.187 411.564 65.112 Q 411.751 65.037 411.976 64.962 Q 412.35 64.888 412.762 64.738 Q 413.173 64.588 413.548 64.438 Q 413.847 64.289 414.072 64.214 Q 414.296 64.139 414.596 64.139 Q 414.895 64.064 415.12 64.027 Q 415.344 63.989 415.569 63.989 Q 416.168 63.914 416.767 63.39 Q 417.815 62.567 418.9 61.706 Q 419.986 60.845 420.959 59.947 Q 421.558 59.423 422.269 58.974 Q 422.98 58.525 423.728 58.15 Q 424.252 57.926 424.851 57.776 Q 425.226 57.626 425.675 57.552 Q 426.124 57.477 426.498 57.402 L 428.07 57.177 Q 429.118 57.102 430.054 56.953 Q 430.99 56.803 431.963 56.653 Q 432.113 56.653 432.262 56.616 Q 432.412 56.578 432.487 56.578 L 433.46 56.578 Q 433.984 56.578 434.433 56.616 Q 434.882 56.653 435.331 56.803 Q 435.93 57.028 436.379 57.364 Q 436.829 57.701 437.128 58.3 Q 437.652 59.049 437.727 59.722 Q 437.802 60.172 437.839 60.621 Q 437.877 61.07 437.877 61.519 L 437.877 62.193 Q 437.877 62.417 438.101 62.567 L 438.55 62.792 Q 439.598 63.166 440.571 63.765 Q 441.545 64.364 442.443 65.037 Q 443.042 65.412 443.341 65.786 Q 443.865 66.31 444.314 66.797 Q 444.764 67.283 445.213 67.807 Q 445.512 68.181 445.812 68.518 Q 446.111 68.855 446.41 69.229 Q 446.635 69.454 446.71 69.604 Q 446.86 70.053 447.234 70.502 Q 447.683 71.251 447.982 71.999 Q 448.207 72.598 448.432 73.234 Q 448.656 73.871 448.806 74.544 Q 448.806 74.769 448.956 75.218 Q 449.03 75.443 449.068 75.63 Q 449.105 75.817 449.105 75.967 Q 449.18 76.416 449.292 76.865 Q 449.405 77.314 449.48 77.763 Q 449.554 78.137 449.629 78.549 Q 449.704 78.961 449.779 79.41 Q 449.854 80.084 450.004 80.795 Q 450.153 81.506 450.228 82.18 L 450.228 82.554 Q 450.228 83.378 450.34 84.238 Q 450.453 85.099 450.453 85.923 Q 450.453 86.222 450.453 86.596 Q 450.453 86.971 450.378 87.345 Q 450.303 87.495 450.303 87.719 Q 450.303 88.618 450.153 89.478 Q 450.004 90.339 449.854 91.163 Q 449.33 94.082 448.282 97.077 Q 448.207 97.376 448.132 97.713 Q 448.057 98.05 447.908 98.424 L 446.785 101.718 Q 446.71 102.017 446.523 102.354 Q 446.336 102.691 446.186 103.065 L 444.838 105.461 Q 444.389 106.284 443.753 106.995 Q 443.117 107.706 442.218 108.23 Q 441.32 108.754 440.571 109.653 Q 440.047 110.401 438.925 110.551 Q 438.401 110.626 437.914 110.663 Q 437.427 110.701 436.978 110.85 L 436.23 111.075 Q 436.155 111.075 436.117 111.112 Q 436.08 111.15 435.93 111.15 Q 435.107 111.3 434.246 111.524 Q 433.385 111.749 432.562 111.898 Q 432.412 111.973 432.113 111.973 Q 431.663 111.973 431.214 112.048 Q 430.765 112.123 430.316 112.273 Z M 426.423 104.937 Q 426.872 105.012 427.247 104.862 Q 427.546 104.712 427.846 104.787 L 428.444 104.787 Q 428.819 104.787 429.118 104.787 Q 429.418 104.787 429.717 104.637 Q 429.942 104.488 430.578 104.375 Q 431.214 104.263 431.214 104.263 Q 431.813 104.113 432.412 103.926 Q 433.011 103.739 433.61 103.439 L 436.754 102.092 Q 437.353 101.867 437.877 101.531 Q 438.401 101.194 438.925 100.894 Q 439.299 100.52 439.598 100.37 Q 440.047 99.996 440.272 99.472 Q 440.422 99.098 440.571 98.723 Q 440.721 98.349 440.796 97.975 Q 441.095 97.151 441.32 96.291 Q 441.545 95.43 441.844 94.606 Q 442.218 93.483 442.555 92.398 Q 442.892 91.312 443.117 90.115 Q 443.192 89.74 443.266 89.291 Q 443.341 88.842 443.416 88.393 Q 443.491 87.869 443.491 87.345 Q 443.491 86.821 443.566 86.297 L 443.566 85.773 Q 443.566 85.249 443.528 84.725 Q 443.491 84.201 443.491 83.677 Q 443.416 82.33 443.192 80.982 Q 442.967 79.635 442.667 78.287 Q 442.518 77.688 442.405 77.127 Q 442.293 76.565 442.143 76.041 Q 441.919 74.993 441.47 74.058 Q 441.021 73.122 440.422 72.224 Q 440.347 71.999 440.197 71.999 Q 439.673 71.4 439.074 70.801 Q 438.475 70.203 437.652 69.903 Q 437.353 69.828 437.053 69.604 Q 436.754 69.454 436.454 69.304 Q 436.155 69.155 435.781 69.08 Q 434.508 68.78 433.011 68.631 Q 432.936 68.556 432.786 68.631 Q 432.637 68.705 432.637 68.855 Q 432.637 69.005 432.599 69.192 Q 432.562 69.379 432.562 69.529 Q 432.487 70.427 432.412 71.363 Q 432.337 72.299 432.412 73.272 Q 432.412 73.646 432.412 74.058 Q 432.412 74.469 432.337 74.844 L 432.337 75.892 Q 432.262 76.191 432.262 76.528 Q 432.262 76.865 432.187 77.164 L 432.187 77.613 Q 432.113 78.137 432.113 78.624 Q 432.113 79.111 431.963 79.71 Q 431.888 79.859 431.888 80.159 Q 432.038 80.907 431.888 81.731 L 431.888 83.078 Q 431.813 83.602 431.663 84.164 Q 431.514 84.725 430.915 85.099 Q 430.765 85.174 430.391 85.099 Q 430.016 85.024 429.867 84.95 Q 429.343 84.725 429.193 84.351 Q 429.118 84.126 429.006 83.902 Q 428.894 83.677 428.894 83.452 Q 428.819 82.854 428.706 82.217 Q 428.594 81.581 428.594 80.907 Q 428.594 80.159 428.594 79.41 Q 428.594 78.661 428.519 77.913 L 428.519 76.715 Q 428.594 76.416 428.594 76.079 Q 428.594 75.742 428.594 75.443 Q 428.594 74.844 428.557 74.245 Q 428.519 73.646 428.519 73.047 Q 428.519 72.598 428.482 72.186 Q 428.444 71.775 428.37 71.325 Q 428.295 71.026 428.22 70.801 Q 428.145 70.577 427.995 70.352 Q 427.771 69.679 427.097 69.304 Q 426.648 68.93 426.124 69.304 Q 425.824 69.529 425.562 69.716 Q 425.3 69.903 425.001 70.203 L 424.702 70.502 Q 424.252 70.727 423.916 71.063 Q 423.579 71.4 423.204 71.775 Q 422.98 71.999 422.755 72.186 Q 422.531 72.373 422.231 72.523 Q 421.782 72.823 421.632 72.972 Q 421.258 73.272 420.884 73.534 Q 420.51 73.796 420.135 74.17 Q 419.986 74.32 419.836 74.395 Q 419.686 74.469 419.536 74.619 Q 419.387 74.769 419.237 74.919 Q 418.713 75.443 418.152 76.041 Q 417.59 76.64 416.991 77.164 Q 416.617 77.539 416.243 77.95 Q 415.868 78.362 415.569 78.811 Q 415.494 79.036 415.195 79.335 L 414.671 80.009 Q 414.147 80.832 413.772 81.731 Q 413.398 82.629 413.099 83.602 Q 412.874 84.276 412.874 84.95 Q 412.799 85.623 412.799 86.334 Q 412.799 87.046 412.949 87.794 Q 412.949 87.944 412.986 88.131 Q 413.024 88.318 412.949 88.468 Q 412.949 89.067 413.024 89.628 Q 413.099 90.19 413.099 90.788 Q 413.173 90.938 413.211 91.125 Q 413.248 91.312 413.323 91.462 Q 413.473 91.687 413.623 91.911 Q 413.772 92.136 413.772 92.435 Q 413.772 92.51 413.922 92.66 Q 414.072 92.959 414.072 93.109 Q 414.371 93.633 414.446 94.082 Q 414.596 94.606 414.895 94.906 L 415.269 95.355 Q 415.269 95.579 415.419 95.767 Q 415.569 95.954 415.644 96.103 Q 415.943 96.403 415.943 96.702 Q 416.093 97.226 416.392 97.526 Q 416.542 97.675 416.692 97.825 Q 416.841 97.975 416.916 98.125 Q 417.291 98.499 417.291 98.873 Q 417.291 99.098 417.365 99.173 Q 417.59 99.247 417.665 99.472 Q 417.74 99.697 417.815 99.846 Q 417.815 99.921 417.852 99.921 Q 417.889 99.921 417.889 99.996 Q 417.889 100.146 418.563 100.595 Q 419.237 101.044 419.312 100.969 L 419.462 100.819 Q 419.462 100.819 419.499 100.819 Q 419.536 100.819 419.536 100.894 L 419.611 100.894 Q 420.135 101.269 419.986 101.793 Q 419.836 101.793 420.06 102.017 L 420.285 102.167 L 420.36 102.242 Q 420.659 102.616 421.258 102.99 Q 421.408 103.065 421.632 103.065 L 421.932 102.99 Q 422.606 102.841 422.98 103.589 Q 422.98 103.739 423.204 103.963 Q 423.728 104.263 424.29 104.413 Q 424.851 104.562 425.375 104.712 Q 425.675 104.787 425.899 104.824 Q 426.124 104.862 426.423 104.937 Z" transform="matrix(0.800726, 0, 0, 1.487096, -21.956646, -40.970413)" style="fill: rgb(255, 255, 255); paint-order: stroke; stroke: rgb(255, 255, 255); stroke-dashoffset: -5px; stroke-miterlimit: 1; stroke-width: 0px; white-space: pre;"/>
</svg>